<?xml version="1.0" standalone="no"?>
<!DOCTYPE svg PUBLIC "-//W3C//DTD SVG 20010904//EN" "http://www.w3.org/TR/2001/REC-SVG-20010904/DTD/svg10.dtd">
<svg version="1.0" xmlns="http://www.w3.org/2000/svg" width="29" height="29" preserveAspectRatio="xMidYMid meet" viewBox="-1 -0.5 36 36">
  <path fill="White" d="M7.8479683,7.2239366 C7.469269,7.2264533 7.0228125,7.4255795 6.656696,7.7916961 6.0709092,8.3774824 5.9126183,9.1689386 6.3031422,9.5594625 L11.878679,15.135 6.3031422,20.710537 C5.9126183,21.101061 6.0709092,21.892517 6.656696,22.478304 7.2424823,23.064091 8.0339386,23.222382 8.4244625,22.831858 L14,17.256321 19.575537,22.831858 C19.966061,23.222382 20.757517,23.064091 21.343304,22.478304 21.929091,21.892517 22.087382,21.101061 21.696858,20.710537 L16.121321,15.135 21.696858,9.5594625 C22.087382,9.1689386 21.929091,8.3774824 21.343304,7.7916961 20.757517,7.2059093 19.966061,7.0476184 19.575537,7.4381423 L14,13.01368 8.4244625,7.4381423 C8.2780163,7.2916956 8.0751888,7.2224264 7.8479683,7.2239366 z M14,0 C21.731987,0 28,6.4918714 28,14.5 28,22.508129 21.731987,29 14,29 6.2680136,29 1.6391277E-07,22.508129 0,14.5 1.6391277E-07,6.4918714 6.2680136,0 14,0 z" />
</svg>